# xmcd
#
# Track frame offsets: 
#        183
#        17455
#        32793
#        63390
#        76405
#        87718
#        102805
#        124225
#        125725
#        135130
#        145443
#        159740
#        171760
#        185415
#        196935
#        208415
#        213645
#
# Disc length: 4057 seconds
#
# Revision: 4
# Processed by: cddbd v1.5.2PL0 Copyright (c) Steve Scherf et al.
# Submitted via: ExactAudioCopyFreeDBPlugin 1.0
#
DISCID=fb0fd711
DTITLE=Canned Heat - Livin' the Blues
DYEAR=1968
DGENRE=Blues
TTITLE0=Pony Blues
TTITLE1=My Mistake
TTITLE2=Sandy's Blues
TTITLE3=Going up the Country
TTITLE4=Walking By Myself
TTITLE5=Boogie Music
TTITLE6=One Kind Favor
TTITLE7=Parthenogenesis I Nebulosity
TTITLE8=Parthenogenesis II Rollin' and Tumblin'
TTITLE9=Parthenogenesis III Five Owls
TTITLE10=Parthenogenesis IV Bear Wires
TTITLE11=Parthenogenesis V Snooky Flowers
TTITLE12=Parthenogenesis VI Sunflower Power (RMS is Truth)
TTITLE13=Parthenogenesis VII Raga Kafi
TTITLE14=Parthenogenesis VII Icebag
TTITLE15=Parthenogenesis VIII Childhood's End
TTITLE16=Refried Boogie (Part 1) (live)
EXTD=Corrected and completed song titles
EXTT0=
EXTT1=
EXTT2=
EXTT3=
EXTT4=
EXTT5=
EXTT6=
EXTT7=
EXTT8=
EXTT9=
EXTT10=
EXTT11=
EXTT12=
EXTT13=
EXTT14=
EXTT15=
EXTT16=
PLAYORDER=
